<mxfile host="app.diagrams.net" modified="2024-03-05T08:47:00.096Z" agent="Mozilla/5.0 (Windows NT 10.0; Win64; x64) AppleWebKit/537.36 (KHTML, like Gecko) Chrome/122.0.0.0 Safari/537.36" etag="aS8J1SHcoAHlDRkAxldD" version="24.0.1" type="google" pages="5">
  <diagram name="ユーザーログイン機能" id="e7e014a7-5840-1c2e-5031-d8a46d1fe8dd">
    <mxGraphModel grid="0" page="1" gridSize="10" guides="1" tooltips="1" connect="1" arrows="1" fold="1" pageScale="1" pageWidth="1169" pageHeight="826" background="none" math="0" shadow="0">
      <root>
        <mxCell id="0" />
        <mxCell id="1" parent="0" />
        <mxCell id="Bri8BDTb2PONJUOXiQDZ-2" value="" style="rounded=0;whiteSpace=wrap;html=1;" vertex="1" parent="1">
          <mxGeometry x="149" y="350" width="763" height="135" as="geometry" />
        </mxCell>
        <mxCell id="g-7lXzKMfrMS04Kt6jSL-41" value="" style="ellipse;html=1;shape=startState;fillColor=#000000;strokeColor=#ff0000;rotation=-157;" vertex="1" parent="1">
          <mxGeometry x="180" y="398" width="30" height="30" as="geometry" />
        </mxCell>
        <mxCell id="g-7lXzKMfrMS04Kt6jSL-42" value="" style="edgeStyle=orthogonalEdgeStyle;html=1;verticalAlign=bottom;endArrow=open;endSize=8;strokeColor=#ff0000;rounded=0;" edge="1" source="g-7lXzKMfrMS04Kt6jSL-41" parent="1">
          <mxGeometry relative="1" as="geometry">
            <mxPoint x="310" y="413" as="targetPoint" />
          </mxGeometry>
        </mxCell>
        <mxCell id="g-7lXzKMfrMS04Kt6jSL-44" value="商品一覧画面&lt;div&gt;&lt;br/&gt;&lt;/div&gt;" style="html=1;whiteSpace=wrap;" vertex="1" parent="1">
          <mxGeometry x="310" y="388" width="110" height="50" as="geometry" />
        </mxCell>
        <mxCell id="g-7lXzKMfrMS04Kt6jSL-45" value="&lt;font style=&quot;font-size: 9px;&quot;&gt;【ログインリンク】&lt;br&gt;クリック&lt;/font&gt;" style="html=1;verticalAlign=bottom;endArrow=block;curved=0;rounded=0;" edge="1" parent="1">
          <mxGeometry width="80" relative="1" as="geometry">
            <mxPoint x="420" y="413" as="sourcePoint" />
            <mxPoint x="500" y="413" as="targetPoint" />
            <Array as="points">
              <mxPoint x="420" y="413" />
            </Array>
          </mxGeometry>
        </mxCell>
        <mxCell id="g-7lXzKMfrMS04Kt6jSL-46" value="ユーザーログイン画面" style="html=1;whiteSpace=wrap;" vertex="1" parent="1">
          <mxGeometry x="500" y="388" width="110" height="50" as="geometry" />
        </mxCell>
        <mxCell id="g-7lXzKMfrMS04Kt6jSL-47" value="&lt;font style=&quot;font-size: 9px;&quot;&gt;【ログインボダン】&lt;br&gt;クリック&lt;/font&gt;" style="html=1;verticalAlign=bottom;endArrow=block;curved=0;rounded=0;" edge="1" parent="1">
          <mxGeometry width="80" relative="1" as="geometry">
            <mxPoint x="610" y="413" as="sourcePoint" />
            <mxPoint x="690" y="413" as="targetPoint" />
            <Array as="points">
              <mxPoint x="610" y="413" />
            </Array>
          </mxGeometry>
        </mxCell>
        <mxCell id="g-7lXzKMfrMS04Kt6jSL-48" value="商品一覧画面&lt;div&gt;&lt;br/&gt;&lt;/div&gt;" style="html=1;whiteSpace=wrap;" vertex="1" parent="1">
          <mxGeometry x="690" y="388" width="110" height="50" as="geometry" />
        </mxCell>
        <mxCell id="g-7lXzKMfrMS04Kt6jSL-49" value="" style="html=1;verticalAlign=bottom;endArrow=block;curved=0;rounded=0;" edge="1" parent="1" target="g-7lXzKMfrMS04Kt6jSL-50">
          <mxGeometry width="80" relative="1" as="geometry">
            <mxPoint x="800" y="413" as="sourcePoint" />
            <mxPoint x="880" y="413" as="targetPoint" />
          </mxGeometry>
        </mxCell>
        <mxCell id="g-7lXzKMfrMS04Kt6jSL-50" value="" style="ellipse;html=1;shape=endState;fillColor=#000000;strokeColor=#ff0000;" vertex="1" parent="1">
          <mxGeometry x="865" y="398" width="30" height="30" as="geometry" />
        </mxCell>
        <mxCell id="g-7lXzKMfrMS04Kt6jSL-51" value="ユーザー" style="text;html=1;align=center;verticalAlign=middle;resizable=0;points=[];autosize=1;strokeColor=none;fillColor=none;" vertex="1" parent="1">
          <mxGeometry x="160" y="368" width="70" height="30" as="geometry" />
        </mxCell>
        <mxCell id="g-7lXzKMfrMS04Kt6jSL-55" value="&lt;font style=&quot;font-size: 19px;&quot;&gt;ユーザーログイン機能&lt;/font&gt;" style="text;html=1;align=center;verticalAlign=middle;resizable=0;points=[];autosize=1;strokeColor=none;fillColor=none;strokeWidth=11;" vertex="1" parent="1">
          <mxGeometry x="152" y="287" width="210" height="40" as="geometry" />
        </mxCell>
      </root>
    </mxGraphModel>
  </diagram>
  <diagram id="5gDSjM80s_K4wpjhEUZ6" name="ユーザー登録機能">
    <mxGraphModel grid="0" page="1" gridSize="10" guides="1" tooltips="1" connect="1" arrows="1" fold="1" pageScale="1" pageWidth="850" pageHeight="1100" math="0" shadow="0">
      <root>
        <mxCell id="0" />
        <mxCell id="1" parent="0" />
        <mxCell id="31KMCX7jaVelCsmxM7-g-1" value="" style="rounded=0;whiteSpace=wrap;html=1;" vertex="1" parent="1">
          <mxGeometry x="40" y="181" width="1003" height="286" as="geometry" />
        </mxCell>
        <mxCell id="1z71xCCA02zLiPPFw1yw-1" value="" style="ellipse;html=1;shape=startState;fillColor=#000000;strokeColor=#ff0000;rotation=-130;" vertex="1" parent="1">
          <mxGeometry x="60" y="290" width="30" height="30" as="geometry" />
        </mxCell>
        <mxCell id="1z71xCCA02zLiPPFw1yw-2" value="" style="edgeStyle=orthogonalEdgeStyle;html=1;verticalAlign=bottom;endArrow=open;endSize=8;strokeColor=#ff0000;rounded=0;" edge="1" source="1z71xCCA02zLiPPFw1yw-1" parent="1">
          <mxGeometry relative="1" as="geometry">
            <mxPoint x="200" y="305" as="targetPoint" />
          </mxGeometry>
        </mxCell>
        <mxCell id="1z71xCCA02zLiPPFw1yw-3" value="商品一覧画面&lt;div&gt;&lt;br/&gt;&lt;/div&gt;" style="html=1;whiteSpace=wrap;" vertex="1" parent="1">
          <mxGeometry x="200" y="280" width="110" height="50" as="geometry" />
        </mxCell>
        <mxCell id="1z71xCCA02zLiPPFw1yw-4" value="【ログインリンク】&lt;br&gt;クリック" style="html=1;verticalAlign=bottom;endArrow=block;curved=0;rounded=0;" edge="1" parent="1">
          <mxGeometry width="80" relative="1" as="geometry">
            <mxPoint x="310" y="304.5" as="sourcePoint" />
            <mxPoint x="440" y="305" as="targetPoint" />
          </mxGeometry>
        </mxCell>
        <mxCell id="1z71xCCA02zLiPPFw1yw-5" value="ユーザーログイン画面&lt;div&gt;&lt;br/&gt;&lt;/div&gt;" style="html=1;whiteSpace=wrap;" vertex="1" parent="1">
          <mxGeometry x="440" y="280" width="150" height="50" as="geometry" />
        </mxCell>
        <mxCell id="ydkCkJ-aT0AjNgMO_Utk-1" value="ユーザー" style="text;html=1;align=center;verticalAlign=middle;resizable=0;points=[];autosize=1;strokeColor=none;fillColor=none;" vertex="1" parent="1">
          <mxGeometry x="40" y="250" width="70" height="30" as="geometry" />
        </mxCell>
        <mxCell id="ydkCkJ-aT0AjNgMO_Utk-2" value="【新規ユーザー登録こちらボダン】&lt;br&gt;クリック" style="html=1;verticalAlign=bottom;endArrow=block;curved=0;rounded=0;" edge="1" parent="1">
          <mxGeometry x="0.076" y="15" width="80" relative="1" as="geometry">
            <mxPoint x="590" y="304.5" as="sourcePoint" />
            <mxPoint x="720" y="305" as="targetPoint" />
            <mxPoint as="offset" />
          </mxGeometry>
        </mxCell>
        <mxCell id="ydkCkJ-aT0AjNgMO_Utk-3" value="ユーザー情報登録画面&lt;div&gt;&lt;br/&gt;&lt;/div&gt;" style="html=1;whiteSpace=wrap;" vertex="1" parent="1">
          <mxGeometry x="720" y="280" width="150" height="50" as="geometry" />
        </mxCell>
        <mxCell id="ydkCkJ-aT0AjNgMO_Utk-4" value="" style="html=1;verticalAlign=bottom;endArrow=block;curved=0;rounded=0;" edge="1" parent="1">
          <mxGeometry width="80" relative="1" as="geometry">
            <mxPoint x="870" y="304.5" as="sourcePoint" />
            <mxPoint x="1000" y="305" as="targetPoint" />
          </mxGeometry>
        </mxCell>
        <mxCell id="ydkCkJ-aT0AjNgMO_Utk-6" value="" style="ellipse;html=1;shape=endState;fillColor=#000000;strokeColor=#ff0000;" vertex="1" parent="1">
          <mxGeometry x="1000" y="290" width="30" height="30" as="geometry" />
        </mxCell>
        <mxCell id="v33iJtE-7FZ9iDIUZgin-1" value="" style="html=1;verticalAlign=bottom;endArrow=block;curved=0;rounded=0;exitX=0;exitY=0.75;exitDx=0;exitDy=0;entryX=1;entryY=0.75;entryDx=0;entryDy=0;" edge="1" parent="1" source="ydkCkJ-aT0AjNgMO_Utk-3" target="1z71xCCA02zLiPPFw1yw-5">
          <mxGeometry width="80" relative="1" as="geometry">
            <mxPoint x="600" y="314.5" as="sourcePoint" />
            <mxPoint x="480" y="370" as="targetPoint" />
          </mxGeometry>
        </mxCell>
        <mxCell id="v33iJtE-7FZ9iDIUZgin-3" value="【ユーザーの情報登録が完了】" style="text;html=1;align=center;verticalAlign=middle;resizable=0;points=[];autosize=1;strokeColor=none;fillColor=none;" vertex="1" parent="1">
          <mxGeometry x="570" y="340" width="190" height="30" as="geometry" />
        </mxCell>
        <mxCell id="v33iJtE-7FZ9iDIUZgin-6" value="&lt;font style=&quot;font-size: 27px;&quot;&gt;ユーザー登録機能&lt;/font&gt;" style="text;html=1;align=center;verticalAlign=middle;resizable=0;points=[];autosize=1;strokeColor=none;fillColor=none;" vertex="1" parent="1">
          <mxGeometry x="40" y="110" width="240" height="50" as="geometry" />
        </mxCell>
      </root>
    </mxGraphModel>
  </diagram>
  <diagram id="0cyEJwN1ZYDCJR9UUfal" name="商品一覧機能">
    <mxGraphModel grid="0" page="1" gridSize="10" guides="1" tooltips="1" connect="1" arrows="1" fold="1" pageScale="1" pageWidth="850" pageHeight="1100" math="0" shadow="0">
      <root>
        <mxCell id="0" />
        <mxCell id="1" parent="0" />
        <mxCell id="NYbozGGpVVcF36lyhjp--1" value="" style="rounded=0;whiteSpace=wrap;html=1;" vertex="1" parent="1">
          <mxGeometry x="67" y="188" width="362" height="156" as="geometry" />
        </mxCell>
        <mxCell id="l7j3p32_Mua8KJQDOp38-3" value="" style="ellipse;html=1;shape=startState;fillColor=#000000;strokeColor=#ff0000;" vertex="1" parent="1">
          <mxGeometry x="100" y="240" width="30" height="30" as="geometry" />
        </mxCell>
        <mxCell id="l7j3p32_Mua8KJQDOp38-4" value="" style="edgeStyle=orthogonalEdgeStyle;html=1;verticalAlign=bottom;endArrow=open;endSize=8;strokeColor=#ff0000;rounded=0;" edge="1" source="l7j3p32_Mua8KJQDOp38-3" parent="1">
          <mxGeometry relative="1" as="geometry">
            <mxPoint x="200" y="255" as="targetPoint" />
          </mxGeometry>
        </mxCell>
        <mxCell id="l7j3p32_Mua8KJQDOp38-5" value="商品一覧画面&lt;div&gt;&lt;br/&gt;&lt;/div&gt;" style="html=1;whiteSpace=wrap;" vertex="1" parent="1">
          <mxGeometry x="200" y="230" width="110" height="50" as="geometry" />
        </mxCell>
        <mxCell id="l7j3p32_Mua8KJQDOp38-6" value="" style="edgeStyle=orthogonalEdgeStyle;html=1;verticalAlign=bottom;endArrow=open;endSize=8;strokeColor=#ff0000;rounded=0;" edge="1" parent="1" target="l7j3p32_Mua8KJQDOp38-7">
          <mxGeometry relative="1" as="geometry">
            <mxPoint x="380" y="254.5" as="targetPoint" />
            <mxPoint x="310" y="254.5" as="sourcePoint" />
          </mxGeometry>
        </mxCell>
        <mxCell id="l7j3p32_Mua8KJQDOp38-7" value="" style="ellipse;html=1;shape=endState;fillColor=#000000;strokeColor=#ff0000;" vertex="1" parent="1">
          <mxGeometry x="365" y="239.5" width="30" height="30" as="geometry" />
        </mxCell>
        <mxCell id="HIMSAg1eMpQr8on53mIC-1" value="ユーザー" style="text;html=1;align=center;verticalAlign=middle;resizable=0;points=[];autosize=1;strokeColor=none;fillColor=none;" vertex="1" parent="1">
          <mxGeometry x="80" y="209.5" width="70" height="30" as="geometry" />
        </mxCell>
        <mxCell id="HIMSAg1eMpQr8on53mIC-2" value="&lt;font style=&quot;font-size: 20px;&quot;&gt;商品一覧機能&lt;/font&gt;" style="text;html=1;align=center;verticalAlign=middle;resizable=0;points=[];autosize=1;strokeColor=none;fillColor=none;" vertex="1" parent="1">
          <mxGeometry x="60" y="132" width="140" height="40" as="geometry" />
        </mxCell>
      </root>
    </mxGraphModel>
  </diagram>
  <diagram id="Y8GVT3YLXEHcFtpqPP6O" name="購入履歴機能">
    <mxGraphModel dx="1143" dy="538" grid="0" gridSize="10" guides="1" tooltips="1" connect="1" arrows="1" fold="1" page="0" pageScale="1" pageWidth="850" pageHeight="1100" background="#ffffff" math="0" shadow="0">
      <root>
        <mxCell id="0" />
        <mxCell id="1" parent="0" />
        <mxCell id="c_lyIvcLo7snKvz-uROP-19" value="" style="rounded=0;whiteSpace=wrap;html=1;" vertex="1" parent="1">
          <mxGeometry x="-85" y="206" width="670" height="438" as="geometry" />
        </mxCell>
        <mxCell id="BQ6H8x2zgve0oI5vmYeh-1" value="" style="ellipse;html=1;shape=startState;fillColor=#000000;strokeColor=#ff0000;" vertex="1" parent="1">
          <mxGeometry x="50" y="250" width="30" height="30" as="geometry" />
        </mxCell>
        <mxCell id="BQ6H8x2zgve0oI5vmYeh-2" value="" style="edgeStyle=orthogonalEdgeStyle;html=1;verticalAlign=bottom;endArrow=open;endSize=8;strokeColor=#ff0000;rounded=0;" edge="1" source="BQ6H8x2zgve0oI5vmYeh-1" parent="1">
          <mxGeometry relative="1" as="geometry">
            <mxPoint x="150" y="265" as="targetPoint" />
          </mxGeometry>
        </mxCell>
        <mxCell id="BQ6H8x2zgve0oI5vmYeh-3" value="商品一覧画面&lt;div&gt;&lt;br/&gt;&lt;/div&gt;" style="html=1;whiteSpace=wrap;" vertex="1" parent="1">
          <mxGeometry x="150" y="240" width="110" height="50" as="geometry" />
        </mxCell>
        <mxCell id="BQ6H8x2zgve0oI5vmYeh-4" value="" style="edgeStyle=orthogonalEdgeStyle;html=1;verticalAlign=bottom;endArrow=open;endSize=8;strokeColor=#ff0000;rounded=0;" edge="1" parent="1">
          <mxGeometry relative="1" as="geometry">
            <mxPoint x="200" y="370" as="targetPoint" />
            <mxPoint x="200" y="290" as="sourcePoint" />
          </mxGeometry>
        </mxCell>
        <mxCell id="BQ6H8x2zgve0oI5vmYeh-5" value="" style="rhombus;whiteSpace=wrap;html=1;fontColor=#000000;fillColor=#ffffc0;strokeColor=#ff0000;" vertex="1" parent="1">
          <mxGeometry x="160" y="370" width="80" height="40" as="geometry" />
        </mxCell>
        <mxCell id="BQ6H8x2zgve0oI5vmYeh-6" value="no" style="edgeStyle=orthogonalEdgeStyle;html=1;align=left;verticalAlign=bottom;endArrow=open;endSize=8;strokeColor=#ff0000;rounded=0;" edge="1" source="BQ6H8x2zgve0oI5vmYeh-5" parent="1">
          <mxGeometry x="-1" relative="1" as="geometry">
            <mxPoint x="340" y="390" as="targetPoint" />
          </mxGeometry>
        </mxCell>
        <mxCell id="BQ6H8x2zgve0oI5vmYeh-7" value="" style="edgeStyle=orthogonalEdgeStyle;html=1;align=left;verticalAlign=top;endArrow=open;endSize=8;strokeColor=#ff0000;rounded=0;" edge="1" source="BQ6H8x2zgve0oI5vmYeh-5" parent="1">
          <mxGeometry x="1" y="70" relative="1" as="geometry">
            <mxPoint x="200" y="470" as="targetPoint" />
            <mxPoint x="-70" y="68" as="offset" />
          </mxGeometry>
        </mxCell>
        <mxCell id="BQ6H8x2zgve0oI5vmYeh-8" value="マイページ画面&lt;div&gt;&lt;br/&gt;&lt;/div&gt;" style="html=1;whiteSpace=wrap;" vertex="1" parent="1">
          <mxGeometry x="145" y="470" width="110" height="50" as="geometry" />
        </mxCell>
        <mxCell id="BQ6H8x2zgve0oI5vmYeh-9" value="ユーザーログイン画面&lt;div&gt;&lt;br/&gt;&lt;/div&gt;" style="html=1;whiteSpace=wrap;" vertex="1" parent="1">
          <mxGeometry x="340" y="365" width="130" height="50" as="geometry" />
        </mxCell>
        <mxCell id="c_lyIvcLo7snKvz-uROP-3" value="&lt;span style=&quot;color: rgb(0, 0, 0); font-family: Helvetica; font-size: 12px; font-style: normal; font-variant-ligatures: normal; font-variant-caps: normal; font-weight: 400; letter-spacing: normal; orphans: 2; text-align: center; text-indent: 0px; text-transform: none; widows: 2; word-spacing: 0px; -webkit-text-stroke-width: 0px; white-space: nowrap; background-color: rgb(251, 251, 251); text-decoration-thickness: initial; text-decoration-style: initial; text-decoration-color: initial; display: inline !important; float: none;&quot;&gt;ユーザー&lt;/span&gt;" style="text;whiteSpace=wrap;html=1;" vertex="1" parent="1">
          <mxGeometry x="40" y="220" width="80" height="40" as="geometry" />
        </mxCell>
        <mxCell id="c_lyIvcLo7snKvz-uROP-4" value="【ログインしている】" style="text;html=1;align=center;verticalAlign=middle;resizable=0;points=[];autosize=1;strokeColor=none;fillColor=none;" vertex="1" parent="1">
          <mxGeometry x="60" y="418" width="140" height="30" as="geometry" />
        </mxCell>
        <mxCell id="c_lyIvcLo7snKvz-uROP-5" value="【ログインしていない】" style="text;html=1;align=center;verticalAlign=middle;resizable=0;points=[];autosize=1;strokeColor=none;fillColor=none;" vertex="1" parent="1">
          <mxGeometry x="200" y="335" width="160" height="30" as="geometry" />
        </mxCell>
        <mxCell id="c_lyIvcLo7snKvz-uROP-8" value="" style="edgeStyle=orthogonalEdgeStyle;html=1;verticalAlign=bottom;endArrow=open;endSize=8;strokeColor=#ff0000;rounded=0;entryX=1;entryY=0.5;entryDx=0;entryDy=0;" edge="1" parent="1" target="BQ6H8x2zgve0oI5vmYeh-8">
          <mxGeometry relative="1" as="geometry">
            <mxPoint x="400" y="520" as="targetPoint" />
            <mxPoint x="400" y="415" as="sourcePoint" />
            <Array as="points">
              <mxPoint x="400" y="495" />
            </Array>
          </mxGeometry>
        </mxCell>
        <mxCell id="c_lyIvcLo7snKvz-uROP-9" value="【ログインボダン】&lt;br&gt;クリック" style="text;html=1;align=center;verticalAlign=middle;resizable=0;points=[];autosize=1;strokeColor=none;fillColor=none;" vertex="1" parent="1">
          <mxGeometry x="405" y="443" width="130" height="40" as="geometry" />
        </mxCell>
        <mxCell id="c_lyIvcLo7snKvz-uROP-11" value="" style="ellipse;html=1;shape=endState;fillColor=#000000;strokeColor=#ff0000;" vertex="1" parent="1">
          <mxGeometry x="185" y="600" width="30" height="30" as="geometry" />
        </mxCell>
        <mxCell id="c_lyIvcLo7snKvz-uROP-12" value="" style="edgeStyle=orthogonalEdgeStyle;html=1;verticalAlign=bottom;endArrow=open;endSize=8;strokeColor=#ff0000;rounded=0;" edge="1" parent="1">
          <mxGeometry relative="1" as="geometry">
            <mxPoint x="200" y="600" as="targetPoint" />
            <mxPoint x="200" y="520" as="sourcePoint" />
          </mxGeometry>
        </mxCell>
        <mxCell id="c_lyIvcLo7snKvz-uROP-17" value="&lt;font style=&quot;font-size: 20px;&quot;&gt;購入履歴機能&lt;/font&gt;" style="text;html=1;align=center;verticalAlign=middle;resizable=0;points=[];autosize=1;strokeColor=none;fillColor=none;" vertex="1" parent="1">
          <mxGeometry x="-78" y="148" width="138" height="36" as="geometry" />
        </mxCell>
      </root>
    </mxGraphModel>
  </diagram>
  <diagram id="S8gjPSZ_niaZl_sjxaKE" name="Page-5">
    <mxGraphModel grid="0" page="0" gridSize="10" guides="1" tooltips="1" connect="1" arrows="1" fold="1" pageScale="1" pageWidth="850" pageHeight="1100" math="0" shadow="0">
      <root>
        <mxCell id="0" />
        <mxCell id="1" parent="0" />
      </root>
    </mxGraphModel>
  </diagram>
</mxfile>
